<svg width="24" height="25" viewBox="0 0 24 25" fill="none" xmlns="http://www.w3.org/2000/svg">
<path d="M8.79191 19.7916C3.58358 21.3541 3.58358 17.1875 1.50024 16.6666M16.0836 22.9166V18.8854C16.1227 18.3887 16.0555 17.8894 15.8867 17.4206C15.7179 16.9518 15.4512 16.5244 15.1044 16.1666C18.3752 15.8021 21.8127 14.5625 21.8127 8.87498C21.8125 7.42063 21.253 6.02206 20.2502 4.96873C20.7251 3.69634 20.6915 2.28992 20.1565 1.04164C20.1565 1.04164 18.9273 0.677059 16.0836 2.58331C13.6961 1.93625 11.1794 1.93625 8.79191 2.58331C5.94816 0.677059 4.71899 1.04164 4.71899 1.04164C4.18397 2.28992 4.15039 3.69634 4.62524 4.96873C3.61496 6.02987 3.05496 7.44108 3.06274 8.90623C3.06274 14.5521 6.50024 15.7916 9.77108 16.1979C9.42837 16.552 9.16406 16.9744 8.99536 17.4374C8.82665 17.9004 8.75734 18.3938 8.79191 18.8854V22.9166" stroke="#F5F5F5" stroke-width="3" stroke-linecap="round" stroke-linejoin="round"/>
</svg>
