<svg width="200" height="24" viewBox="0 0 200 24" fill="none" xmlns="http://www.w3.org/2000/svg">
<path d="M7.39062 22.75H2.34375L2.375 18.5312H7.39062C8.43229 18.5312 9.3125 18.2812 10.0312 17.7812C10.7604 17.2812 11.3125 16.5365 11.6875 15.5469C12.0729 14.5469 12.2656 13.3177 12.2656 11.8594V10.875C12.2656 9.78125 12.1562 8.82292 11.9375 8C11.7292 7.16667 11.4167 6.47396 11 5.92188C10.5833 5.35938 10.0625 4.9375 9.4375 4.65625C8.82292 4.375 8.11458 4.23438 7.3125 4.23438H2.25V0H7.3125C8.85417 0 10.2656 0.265625 11.5469 0.796875C12.8385 1.31771 13.9531 2.06771 14.8906 3.04688C15.8385 4.01562 16.5677 5.16667 17.0781 6.5C17.599 7.82292 17.8594 9.29167 17.8594 10.9062V11.8594C17.8594 13.4635 17.599 14.9323 17.0781 16.2656C16.5677 17.599 15.8438 18.75 14.9062 19.7188C13.9688 20.6875 12.8594 21.4375 11.5781 21.9688C10.3073 22.4896 8.91146 22.75 7.39062 22.75ZM5.48438 0V22.75H0V0H5.48438ZM28.6562 23.0625C27.2812 23.0625 26.0521 22.849 24.9688 22.4219C23.8854 21.9844 22.9688 21.3854 22.2188 20.625C21.4792 19.8646 20.9115 18.9896 20.5156 18C20.1302 17.0104 19.9375 15.9635 19.9375 14.8594V14.2656C19.9375 13.026 20.1094 11.8802 20.4531 10.8281C20.7969 9.76562 21.3073 8.83854 21.9844 8.04688C22.6615 7.25521 23.5104 6.64062 24.5312 6.20312C25.5521 5.75521 26.7396 5.53125 28.0938 5.53125C29.2917 5.53125 30.3646 5.72396 31.3125 6.10938C32.2604 6.49479 33.0625 7.04688 33.7188 7.76562C34.3854 8.48438 34.8906 9.35417 35.2344 10.375C35.5885 11.3958 35.7656 12.5417 35.7656 13.8125V15.9531H21.9531V12.6562H30.625V12.25C30.6354 11.6875 30.5365 11.2083 30.3281 10.8125C30.1302 10.4167 29.8385 10.1146 29.4531 9.90625C29.0677 9.69792 28.599 9.59375 28.0469 9.59375C27.474 9.59375 27 9.71875 26.625 9.96875C26.2604 10.2188 25.974 10.5625 25.7656 11C25.5677 11.4271 25.4271 11.9219 25.3438 12.4844C25.2604 13.0469 25.2188 13.6406 25.2188 14.2656V14.8594C25.2188 15.4844 25.3021 16.0521 25.4688 16.5625C25.6458 17.0729 25.8958 17.5104 26.2188 17.875C26.5521 18.2292 26.9479 18.5052 27.4062 18.7031C27.875 18.901 28.4062 19 29 19C29.7188 19 30.4271 18.8646 31.125 18.5938C31.8229 18.3229 32.4219 17.875 32.9219 17.25L35.3125 20.0938C34.9688 20.5833 34.4792 21.0573 33.8438 21.5156C33.2188 21.974 32.4688 22.349 31.5938 22.6406C30.7188 22.9219 29.7396 23.0625 28.6562 23.0625ZM43.7812 19.1406L47.1094 5.84375H52.6562L47.125 22.75H43.8438L43.7812 19.1406ZM41.8125 5.84375L45.0938 19.1406L45.0625 22.75H41.7656L36.25 5.84375H41.8125Z" fill="white"/>
<path d="M51.9375 20.2812C51.9375 19.5312 52.2083 18.9062 52.75 18.4062C53.2917 17.8958 53.9896 17.6406 54.8438 17.6406C55.7083 17.6406 56.4062 17.8958 56.9375 18.4062C57.4792 18.9062 57.75 19.5312 57.75 20.2812C57.75 21.0312 57.4792 21.6615 56.9375 22.1719C56.4062 22.6719 55.7083 22.9219 54.8438 22.9219C53.9896 22.9219 53.2917 22.6719 52.75 22.1719C52.2083 21.6615 51.9375 21.0312 51.9375 20.2812ZM67.0156 0V22.75H61.5312V0H67.0156ZM75.8594 9.46875V13.6875H65.4531V9.46875H75.8594ZM76.75 0V4.23438H65.4531V0H76.75ZM77.7812 14.4688V14.1406C77.7812 12.901 77.9583 11.7604 78.3125 10.7188C78.6667 9.66667 79.1875 8.75521 79.875 7.98438C80.5625 7.21354 81.4115 6.61458 82.4219 6.1875C83.4323 5.75 84.599 5.53125 85.9219 5.53125C87.2552 5.53125 88.4271 5.75 89.4375 6.1875C90.4583 6.61458 91.3125 7.21354 92 7.98438C92.6875 8.75521 93.2083 9.66667 93.5625 10.7188C93.9167 11.7604 94.0938 12.901 94.0938 14.1406V14.4688C94.0938 15.6979 93.9167 16.8385 93.5625 17.8906C93.2083 18.9323 92.6875 19.8438 92 20.625C91.3125 21.3958 90.4635 21.9948 89.4531 22.4219C88.4427 22.849 87.276 23.0625 85.9531 23.0625C84.6302 23.0625 83.4583 22.849 82.4375 22.4219C81.4167 21.9948 80.5625 21.3958 79.875 20.625C79.1875 19.8438 78.6667 18.9323 78.3125 17.8906C77.9583 16.8385 77.7812 15.6979 77.7812 14.4688ZM83.0469 14.1406V14.4688C83.0469 15.1042 83.0938 15.6979 83.1875 16.25C83.2812 16.8021 83.4375 17.2865 83.6562 17.7031C83.875 18.1094 84.1719 18.4271 84.5469 18.6562C84.9219 18.8854 85.3906 19 85.9531 19C86.5052 19 86.9635 18.8854 87.3281 18.6562C87.7031 18.4271 88 18.1094 88.2188 17.7031C88.4375 17.2865 88.5938 16.8021 88.6875 16.25C88.7812 15.6979 88.8281 15.1042 88.8281 14.4688V14.1406C88.8281 13.526 88.7812 12.9479 88.6875 12.4062C88.5938 11.8542 88.4375 11.3698 88.2188 10.9531C88 10.526 87.7031 10.1927 87.3281 9.95312C86.9531 9.71354 86.4844 9.59375 85.9219 9.59375C85.3698 9.59375 84.9062 9.71354 84.5312 9.95312C84.1667 10.1927 83.875 10.526 83.6562 10.9531C83.4375 11.3698 83.2812 11.8542 83.1875 12.4062C83.0938 12.9479 83.0469 13.526 83.0469 14.1406ZM101.75 10.0312V22.75H96.4844V5.84375H101.406L101.75 10.0312ZM106.75 5.71875L106.656 10.6094C106.448 10.5885 106.167 10.5625 105.812 10.5312C105.458 10.5 105.161 10.4844 104.922 10.4844C104.307 10.4844 103.776 10.5573 103.328 10.7031C102.891 10.8385 102.526 11.0469 102.234 11.3281C101.953 11.599 101.745 11.9427 101.609 12.3594C101.484 12.776 101.427 13.2604 101.438 13.8125L100.484 13.1875C100.484 12.0521 100.594 11.0208 100.812 10.0938C101.042 9.15625 101.365 8.34896 101.781 7.67188C102.198 6.98438 102.703 6.45833 103.297 6.09375C103.891 5.71875 104.557 5.53125 105.297 5.53125C105.557 5.53125 105.812 5.54688 106.062 5.57812C106.323 5.60938 106.552 5.65625 106.75 5.71875ZM118.25 5.84375V9.5H108.062V5.84375H118.25ZM110.203 1.64062H115.469V17.2344C115.469 17.6823 115.521 18.0312 115.625 18.2812C115.729 18.5208 115.906 18.6927 116.156 18.7969C116.417 18.8906 116.76 18.9375 117.188 18.9375C117.49 18.9375 117.74 18.9323 117.938 18.9219C118.135 18.901 118.323 18.875 118.5 18.8438V22.6094C118.052 22.7552 117.583 22.8646 117.094 22.9375C116.604 23.0208 116.083 23.0625 115.531 23.0625C114.406 23.0625 113.443 22.8854 112.641 22.5312C111.849 22.1771 111.245 21.6198 110.828 20.8594C110.411 20.099 110.203 19.1094 110.203 17.8906V1.64062ZM130.219 18.6406V5.84375H135.5V22.75H130.562L130.219 18.6406ZM130.719 15.2031L132.094 15.1719C132.094 16.3073 131.958 17.3594 131.688 18.3281C131.417 19.2865 131.016 20.1198 130.484 20.8281C129.964 21.5365 129.318 22.0885 128.547 22.4844C127.786 22.8698 126.906 23.0625 125.906 23.0625C125.073 23.0625 124.307 22.9479 123.609 22.7188C122.922 22.4792 122.328 22.1094 121.828 21.6094C121.328 21.099 120.938 20.4479 120.656 19.6562C120.385 18.8542 120.25 17.8958 120.25 16.7812V5.84375H125.516V16.8125C125.516 17.1875 125.562 17.5104 125.656 17.7812C125.75 18.0521 125.885 18.2812 126.062 18.4688C126.24 18.6458 126.458 18.7812 126.719 18.875C126.99 18.9583 127.297 19 127.641 19C128.432 19 129.052 18.8333 129.5 18.5C129.948 18.1667 130.26 17.7135 130.438 17.1406C130.625 16.5677 130.719 15.9219 130.719 15.2031ZM143.578 9.45312V22.75H138.312V5.84375H143.25L143.578 9.45312ZM142.953 13.7188L141.719 13.75C141.719 12.4583 141.875 11.3073 142.188 10.2969C142.5 9.27604 142.943 8.41146 143.516 7.70312C144.089 6.99479 144.771 6.45833 145.562 6.09375C146.365 5.71875 147.255 5.53125 148.234 5.53125C149.016 5.53125 149.729 5.64583 150.375 5.875C151.031 6.10417 151.594 6.47396 152.062 6.98438C152.542 7.49479 152.906 8.17188 153.156 9.01562C153.417 9.84896 153.547 10.8802 153.547 12.1094V22.75H148.25V12.0938C148.25 11.4167 148.156 10.901 147.969 10.5469C147.781 10.1823 147.51 9.93229 147.156 9.79688C146.802 9.66146 146.37 9.59375 145.859 9.59375C145.318 9.59375 144.859 9.69792 144.484 9.90625C144.109 10.1146 143.807 10.4062 143.578 10.7812C143.359 11.1458 143.198 11.5781 143.094 12.0781C143 12.5781 142.953 13.125 142.953 13.7188ZM165.25 18.5V11.5312C165.25 11.0521 165.182 10.6406 165.047 10.2969C164.911 9.95312 164.698 9.6875 164.406 9.5C164.115 9.30208 163.724 9.20312 163.234 9.20312C162.839 9.20312 162.5 9.27083 162.219 9.40625C161.938 9.54167 161.724 9.74479 161.578 10.0156C161.432 10.2865 161.359 10.6302 161.359 11.0469H156.094C156.094 10.2656 156.266 9.54167 156.609 8.875C156.964 8.19792 157.464 7.60938 158.109 7.10938C158.766 6.60938 159.547 6.22396 160.453 5.95312C161.37 5.67188 162.391 5.53125 163.516 5.53125C164.859 5.53125 166.057 5.75521 167.109 6.20312C168.172 6.65104 169.01 7.32292 169.625 8.21875C170.24 9.10417 170.547 10.2188 170.547 11.5625V18.4844C170.547 19.5885 170.609 20.4271 170.734 21C170.859 21.5625 171.036 22.0573 171.266 22.4844V22.75H165.984C165.734 22.2292 165.547 21.5938 165.422 20.8438C165.307 20.0833 165.25 19.3021 165.25 18.5ZM165.891 12.4219L165.922 15.2344H163.594C163.104 15.2344 162.688 15.3021 162.344 15.4375C162.01 15.5729 161.74 15.7604 161.531 16C161.333 16.2292 161.188 16.4896 161.094 16.7812C161.01 17.0729 160.969 17.3802 160.969 17.7031C160.969 18.0156 161.042 18.2969 161.188 18.5469C161.344 18.7865 161.552 18.974 161.812 19.1094C162.073 19.2448 162.365 19.3125 162.688 19.3125C163.271 19.3125 163.766 19.2031 164.172 18.9844C164.589 18.7552 164.906 18.4792 165.125 18.1562C165.344 17.8333 165.453 17.5312 165.453 17.25L166.609 19.4062C166.401 19.8229 166.161 20.2448 165.891 20.6719C165.63 21.099 165.302 21.4948 164.906 21.8594C164.521 22.2135 164.047 22.5052 163.484 22.7344C162.922 22.9531 162.24 23.0625 161.438 23.0625C160.396 23.0625 159.438 22.849 158.562 22.4219C157.698 21.9948 157.005 21.401 156.484 20.6406C155.964 19.8698 155.703 18.9844 155.703 17.9844C155.703 17.1094 155.859 16.3281 156.172 15.6406C156.495 14.9531 156.979 14.3698 157.625 13.8906C158.271 13.4115 159.094 13.0469 160.094 12.7969C161.094 12.5469 162.271 12.4219 163.625 12.4219H165.891ZM182.375 5.84375V9.5H172.188V5.84375H182.375ZM174.328 1.64062H179.594V17.2344C179.594 17.6823 179.646 18.0312 179.75 18.2812C179.854 18.5208 180.031 18.6927 180.281 18.7969C180.542 18.8906 180.885 18.9375 181.312 18.9375C181.615 18.9375 181.865 18.9323 182.062 18.9219C182.26 18.901 182.448 18.875 182.625 18.8438V22.6094C182.177 22.7552 181.708 22.8646 181.219 22.9375C180.729 23.0208 180.208 23.0625 179.656 23.0625C178.531 23.0625 177.568 22.8854 176.766 22.5312C175.974 22.1771 175.37 21.6198 174.953 20.8594C174.536 20.099 174.328 19.1094 174.328 17.8906V1.64062ZM183.344 14.4688V14.1406C183.344 12.901 183.521 11.7604 183.875 10.7188C184.229 9.66667 184.75 8.75521 185.438 7.98438C186.125 7.21354 186.974 6.61458 187.984 6.1875C188.995 5.75 190.161 5.53125 191.484 5.53125C192.818 5.53125 193.99 5.75 195 6.1875C196.021 6.61458 196.875 7.21354 197.562 7.98438C198.25 8.75521 198.771 9.66667 199.125 10.7188C199.479 11.7604 199.656 12.901 199.656 14.1406V14.4688C199.656 15.6979 199.479 16.8385 199.125 17.8906C198.771 18.9323 198.25 19.8438 197.562 20.625C196.875 21.3958 196.026 21.9948 195.016 22.4219C194.005 22.849 192.839 23.0625 191.516 23.0625C190.193 23.0625 189.021 22.849 188 22.4219C186.979 21.9948 186.125 21.3958 185.438 20.625C184.75 19.8438 184.229 18.9323 183.875 17.8906C183.521 16.8385 183.344 15.6979 183.344 14.4688ZM188.609 14.1406V14.4688C188.609 15.1042 188.656 15.6979 188.75 16.25C188.844 16.8021 189 17.2865 189.219 17.7031C189.438 18.1094 189.734 18.4271 190.109 18.6562C190.484 18.8854 190.953 19 191.516 19C192.068 19 192.526 18.8854 192.891 18.6562C193.266 18.4271 193.562 18.1094 193.781 17.7031C194 17.2865 194.156 16.8021 194.25 16.25C194.344 15.6979 194.391 15.1042 194.391 14.4688V14.1406C194.391 13.526 194.344 12.9479 194.25 12.4062C194.156 11.8542 194 11.3698 193.781 10.9531C193.562 10.526 193.266 10.1927 192.891 9.95312C192.516 9.71354 192.047 9.59375 191.484 9.59375C190.932 9.59375 190.469 9.71354 190.094 9.95312C189.729 10.1927 189.438 10.526 189.219 10.9531C189 11.3698 188.844 11.8542 188.75 12.4062C188.656 12.9479 188.609 13.526 188.609 14.1406Z" fill="#397DED"/>
</svg>
